<svg xmlns="http://www.w3.org/2000/svg" version="1.1" xmlns:xlink="http://www.w3.org/1999/xlink" width="1000" height="1000"><style>
    #light-icon {
      display: inline;
    }
    #dark-icon {
      display: none;
    }

    @media (prefers-color-scheme: dark) {
      #light-icon {
        display: none;
      }
      #dark-icon {
        display: inline;
      }
    }
  </style><g id="light-icon"><svg xmlns="http://www.w3.org/2000/svg" version="1.1" xmlns:xlink="http://www.w3.org/1999/xlink" width="1000" height="1000"><g clip-path="url(#SvgjsClipPath1352)"><rect width="1000" height="1000" fill="#ffffff"></rect><g transform="matrix(0.75642965204236,0,0,0.75642965204236,5.684341886080802e-14,167.54916792738277)"><svg xmlns="http://www.w3.org/2000/svg" version="1.1" xmlns:xlink="http://www.w3.org/1999/xlink" width="1322" height="879"><svg id="logo" xmlns="http://www.w3.org/2000/svg" width="1322" height="879" viewBox="0 0 1322 879">
  <defs>
    <style>
      .cls-1 {
        fill: #f8b936;
      }

      .cls-1, .cls-2 {
        fill-rule: evenodd;
      }

      .cls-2 {
        fill: #ca9387;
      }
    </style>
  <clipPath id="SvgjsClipPath1352"><rect width="1000" height="1000" x="0" y="0" rx="350" ry="350"></rect></clipPath></defs>
  <path id="Colore_riempimento_2" data-name="Colore riempimento 2" class="cls-1" d="M596,2c141.686-.825,314.9,23.385,410,68,24.19,11.348,56.46,34.41,66,55,26.43,57.04-62.66,96.25-95,110,16.688-15.2,75.89-34.237,68-74-5.97-30.1-97.99-61.452-141-72-25.878-6.347-55.8-13.331-90-18-34.814-4.752-74.026-7.157-114-10-113.847-8.1-258.531-3.768-330,35-14.822,8.04-25.2,18.235-35,31-2.422,4.791-3.438,8.507-5,16-0.983-5,2.772-15.438,4-17,19.137-34.416,61.016-48.362,105-61,36.106-10.375,83.487-18.085,136-19,61.054-1.064,128.042,2.366,191,9,60.586,6.384,117.292,16.085,160,28,44.478,12.409,158.85,51.541,116,110,42.56-37.122,32.32-65.933,1-88-30.28-21.336-77.367-40.008-104-49C876.774,34.992,781.288,21.049,683,16c-61.9-3.18-125.155-3.469-182,3-65.374,7.439-121.332,23.493-159,49-9.78,6.623-21.069,18.424-28,30-3.337,5.574-4.436,10.735-7,16,1.425-6.364,3.442-13.873,8-21,10.145-15.864,27.407-31.37,40-39,20.387-12.352,62.3-26.45,96-35,23.954-6.078,46.064-9.515,69-13C547.138,3.474,568.248,2.07,596,2ZM377,584c40.1,0.384,79.89-.384,120,0,64.228,0.616,128.782,2.384,193,3l119,3c37.882,0.613,124.229,3.081,143,6l-247-2-89-2-77-2-119-4C405.1,585.583,389.754,587.11,377,584Zm-78,43,739,14v1l-243,2-113-2H628c-25.219-1.008-92.548-2.719-139-5l-151-7C322.325,629.559,308.5,629.347,299,627Zm-97,47,190,8c49,1.333,98.005,3.667,147,5,25.331,0.667,48.669,1.333,74,2,26.664,0.667,55.336,1.333,82,2,47.662,0.667,95.075.6,143,1,38.837-.365,78.157.2,117,0,32.161-.165,62.79-0.211,96-2l81-4h-2l-39,6c-36.09,6.8-69.9,11.208-108,16-36.368,4.573-77.569,7.531-118,9-15.982,1.316-29.335,1-44,1H713l-73-2c-16.332,0-32.142-.21-49-1-64.417-1.367-122.269-5.684-183-11-55.072-4.383-101.974-11.944-150-20C241.411,681.217,217.856,680.073,202,674Zm-96,56c35.663,4.666,69.547,9.387,106,13,53.625,4.526,113.006,9,169,13,82.325,4.386,164.412,7.72,247,10H765c79.787,0,169.546-2.579,248-7,27-1.333,54-3.667,81-5l71-8,56-10c-0.33.667,0.33,0.333,0,1-23,6-49,13-72,19-46.98,9.052-88.02,16.844-135,23-69.906,6.106-135.463,9.58-203,12-32,0-66,1-98,1-33.255.769-101.557,0.155-136-2-21-.333-42.739-0.35-64-2-57.471-2.415-118.586-6.241-174-14-67.57-9.461-130.677-18.235-191-34Zm1213,57c0.67,0.667-.67.333,0,1-28.28,13.581-59.05,25.531-89,36-33.05,9.675-61.67,15-94,23-59.17,11.451-112.26,18.254-179,25-27.331,1.333-53.669,1.667-81,3-31.663.333-62.337,1.667-94,2l-84,1-109-2c-29.664-.667-60.1-1.137-90-3-65.773-4.008-131.781-9.555-191-17-77.892-9.793-150.284-20.234-219-38-25.158-6.5-66.742-15.185-88-24,50.619,9.863,97.9,18.052,149,26,71.335,7.436,138.862,12.958,209,18,17.332,0.667,34.668,2.333,52,3,46.474,3,92.005,5,138,8,16.238,0.333,30.8,1.188,48,2l66,2c40.1,0.479,76.38.479,116,0,13,0,26-1,39-1,49-1.709,97.005-4.334,146-7,26.331-1.333,53.67-3.667,80-5,69.71-4.866,177.67-17.08,236-39C1292,796.667,1307,791.333,1319,787Z"></path>
  <path id="Colore_riempimento_3" data-name="Colore riempimento 3" class="cls-2" d="M564,318H758c0.173-20.109.683-69.861,0-112-0.539-33.284.956-58.088-7-69-4.207-5.77-14.565-7.757-24-9-9.258-1.219-18.525-.967-19-2-1.589-2.779-1.558-15.2,0-20,2.565-2.368,47.6.81,70.9,1.216,15.033,0.261,23.066-.477,38.1-0.216,11.488-.391,18.231-1.076,30-1,7.084,0.046,25.52-2.151,27,0,1.55,1.719,1.472,16.473,0,20-2.478.95-10.726,1.063-18,2-11.211,1.443-22.563,4.3-26,11-8.142,15.866-5,64.925-5,92V433c0,10.236-.012,22.825,0,36,0.018,19.412-.416,37.757,4,49,4.574,11.647,25.215,14.609,37,15,5.227,0.173,6.834-.169,8,1,1.386,1.156.947,6.656,1,10,0.069,4.344.48,7.551-1,10-0.124.373-1.917,1.046-5,1-8.484-.127-25.508-1.972-35-2-26.339-.076-51.572.169-78,0-8.884,0-23.709.907-31,1-8.644.11-14.645,2.059-17,0-1.256-.767-0.948-7.074-1-10-0.067-3.775-.084-8.76,1-10,0.987-1.383,4.627-.891,7-1,13.287-.611,29.369-2.526,35-9,6.87-7.9,8.281-34.591,8.1-66.564-0.242-43.657.127-95.964-.1-118.436H564c-0.161,19.363-.007,61.81,0,101,0.007,38.977-.156,74.724,8,84,5.957,6.776,16.575,6.7,28,8,4.062,0.462,11.6.434,14,2,1.487,1.02.94,8.558,1,11,0.082,3.312.127,8.113-1,9-0.759,1.627-11.13.23-20,0-8.217-.214-19.284-0.979-24-1-29.046-.128-44.05-0.056-73,0-8.729,0-20.141.5-30,1-7.961.4-14.841,0.971-19,0-1.226-1.316-1.029-5.574-1-10,0.03-4.7.364-9.069,1-10,1.466-.965,3.519-0.879,7.578-1.056,14.435-.628,32.005-4.48,36.422-11.944,4.5-7.6,4.872-24.836,5-43,0.128-18.236,0-37.413,0-51V232c0-14-.008-32.007,0-49,0.008-16.108.154-32.348-4-41-6.02-12.541-16.118-12.822-27-14-6.09-.659-12.594-0.561-18-2-1.218-3.351-1.493-15.651,0-20,1.3-1.508,13.628-.118,28,0,11.012,0.09,21.047.86,30,1,19.094,0.3,21.909-.332,41,0,10.1-.45,26.779-0.612,43-1,11.479-.275,19.736-1.506,24,0,1.866,2.016,1.35,16.311,0,20-5.912,1.5-13.183,1.106-20,2-9.719,1.275-18.692,4.041-23,9-7.669,8.826-6.8,44.415-7,83C563.8,258.6,563.814,299.972,564,318ZM456,114v4c19.266-.094,36.625,4.34,44,16,7.642,12.082,5.956,28.121,6,49,0.036,16.709,0,34.192,0,47V429c0,13.143.031,31.887,0,49-0.035,19.672-.286,37.266-3,43-9.99,21.11-33.911,19.829-47,21-0.22.02,0.039,0.807,0,3,5.666,0,29.334-1,35-1,33-.056,48,0.333,81,0,8.073,0.007,24.72,1,34,1,0.087,0-.019-1.827,0-3-48.92-.26-52.233-20.147-51-79,0.389-18.572,0-39.43,0-59,0-12.317-.351-34.957,0-52,0.236-11.465-.618-18.02,1-20,2.453-2.309,5.734-2,8-2,47.151-.07,94.933,0,142,0,10.385,0,25.129.229,38,0,4.138-.074,8.23-0.053,12,0,4.721,0.066,8.24.251,10,2,1.329,1.969.968,3.845,1,6,0.084,5.745-.013,12.313,0,20,0.009,5.715-.01,90.7,0,92,0.278,35.477.451,66.1-7,76-9.285,12.332-28.232,14.9-44,16-0.187.013,0.015,0.962,0,3,2.4,0.071,9.679-.071,13,0,12.759-1.188,30.735-.875,43-1,20.4-.208,40.6.208,61,0,8.045,0,26.148.987,33,1,0.029,0,.047-1.822,0-3-18.118-.177-35.148-4.267-43-15-9.8-13.4-7-57.127-7-83V240c0-22.107-.613-61.5,1-87,0.623-9.841,3.515-16.659,6-20,8.031-10.8,23.7-15.1,43-15v-4c-23.348,2.131-48.616,2.127-74,2-25.974-.129-52.065-0.423-76-2v4c18.891-.207,33.415,3.063,41,12,10.923,12.869,10.15,35.437,10,59-0.127,19.907.229,41.713,0,63-0.15,13.907.371,37.493,0,55-0.191,9.047,1.114,16.278-1,19-2.39,1.543-5.4,1-8,1-46.5.1-93.6,0-140,0-13.283,0-36.344-.145-51,0-5.525.054-9.161,0.411-11-1-1.058-1.113-.981-19.332-1-44-0.023-29.848-.01-68.87,0-95,0.009-24.825,1.138-45.327,7-53,8.741-11.441,24.116-16.067,44-16v-4c-26.479,1.741-55.3,2.086-84,2C499.4,115.932,476.81,115.9,456,114Z"></path>
</svg></svg></g></g></svg></g><g id="dark-icon"><svg xmlns="http://www.w3.org/2000/svg" version="1.1" xmlns:xlink="http://www.w3.org/1999/xlink" width="1000" height="1000"><g><g transform="matrix(0.75642965204236,0,0,0.75642965204236,5.684341886080802e-14,167.54916792738277)"><svg xmlns="http://www.w3.org/2000/svg" version="1.1" xmlns:xlink="http://www.w3.org/1999/xlink" width="1322" height="879"><svg id="logo" xmlns="http://www.w3.org/2000/svg" width="1322" height="879" viewBox="0 0 1322 879">
  <defs>
    <style>
      .cls-1 {
        fill: #f8b936;
      }

      .cls-1, .cls-2 {
        fill-rule: evenodd;
      }

      .cls-2 {
        fill: #ca9387;
      }
    </style>
  </defs>
  <path id="Colore_riempimento_2" data-name="Colore riempimento 2" class="cls-1" d="M596,2c141.686-.825,314.9,23.385,410,68,24.19,11.348,56.46,34.41,66,55,26.43,57.04-62.66,96.25-95,110,16.688-15.2,75.89-34.237,68-74-5.97-30.1-97.99-61.452-141-72-25.878-6.347-55.8-13.331-90-18-34.814-4.752-74.026-7.157-114-10-113.847-8.1-258.531-3.768-330,35-14.822,8.04-25.2,18.235-35,31-2.422,4.791-3.438,8.507-5,16-0.983-5,2.772-15.438,4-17,19.137-34.416,61.016-48.362,105-61,36.106-10.375,83.487-18.085,136-19,61.054-1.064,128.042,2.366,191,9,60.586,6.384,117.292,16.085,160,28,44.478,12.409,158.85,51.541,116,110,42.56-37.122,32.32-65.933,1-88-30.28-21.336-77.367-40.008-104-49C876.774,34.992,781.288,21.049,683,16c-61.9-3.18-125.155-3.469-182,3-65.374,7.439-121.332,23.493-159,49-9.78,6.623-21.069,18.424-28,30-3.337,5.574-4.436,10.735-7,16,1.425-6.364,3.442-13.873,8-21,10.145-15.864,27.407-31.37,40-39,20.387-12.352,62.3-26.45,96-35,23.954-6.078,46.064-9.515,69-13C547.138,3.474,568.248,2.07,596,2ZM377,584c40.1,0.384,79.89-.384,120,0,64.228,0.616,128.782,2.384,193,3l119,3c37.882,0.613,124.229,3.081,143,6l-247-2-89-2-77-2-119-4C405.1,585.583,389.754,587.11,377,584Zm-78,43,739,14v1l-243,2-113-2H628c-25.219-1.008-92.548-2.719-139-5l-151-7C322.325,629.559,308.5,629.347,299,627Zm-97,47,190,8c49,1.333,98.005,3.667,147,5,25.331,0.667,48.669,1.333,74,2,26.664,0.667,55.336,1.333,82,2,47.662,0.667,95.075.6,143,1,38.837-.365,78.157.2,117,0,32.161-.165,62.79-0.211,96-2l81-4h-2l-39,6c-36.09,6.8-69.9,11.208-108,16-36.368,4.573-77.569,7.531-118,9-15.982,1.316-29.335,1-44,1H713l-73-2c-16.332,0-32.142-.21-49-1-64.417-1.367-122.269-5.684-183-11-55.072-4.383-101.974-11.944-150-20C241.411,681.217,217.856,680.073,202,674Zm-96,56c35.663,4.666,69.547,9.387,106,13,53.625,4.526,113.006,9,169,13,82.325,4.386,164.412,7.72,247,10H765c79.787,0,169.546-2.579,248-7,27-1.333,54-3.667,81-5l71-8,56-10c-0.33.667,0.33,0.333,0,1-23,6-49,13-72,19-46.98,9.052-88.02,16.844-135,23-69.906,6.106-135.463,9.58-203,12-32,0-66,1-98,1-33.255.769-101.557,0.155-136-2-21-.333-42.739-0.35-64-2-57.471-2.415-118.586-6.241-174-14-67.57-9.461-130.677-18.235-191-34Zm1213,57c0.67,0.667-.67.333,0,1-28.28,13.581-59.05,25.531-89,36-33.05,9.675-61.67,15-94,23-59.17,11.451-112.26,18.254-179,25-27.331,1.333-53.669,1.667-81,3-31.663.333-62.337,1.667-94,2l-84,1-109-2c-29.664-.667-60.1-1.137-90-3-65.773-4.008-131.781-9.555-191-17-77.892-9.793-150.284-20.234-219-38-25.158-6.5-66.742-15.185-88-24,50.619,9.863,97.9,18.052,149,26,71.335,7.436,138.862,12.958,209,18,17.332,0.667,34.668,2.333,52,3,46.474,3,92.005,5,138,8,16.238,0.333,30.8,1.188,48,2l66,2c40.1,0.479,76.38.479,116,0,13,0,26-1,39-1,49-1.709,97.005-4.334,146-7,26.331-1.333,53.67-3.667,80-5,69.71-4.866,177.67-17.08,236-39C1292,796.667,1307,791.333,1319,787Z"></path>
  <path id="Colore_riempimento_3" data-name="Colore riempimento 3" class="cls-2" d="M564,318H758c0.173-20.109.683-69.861,0-112-0.539-33.284.956-58.088-7-69-4.207-5.77-14.565-7.757-24-9-9.258-1.219-18.525-.967-19-2-1.589-2.779-1.558-15.2,0-20,2.565-2.368,47.6.81,70.9,1.216,15.033,0.261,23.066-.477,38.1-0.216,11.488-.391,18.231-1.076,30-1,7.084,0.046,25.52-2.151,27,0,1.55,1.719,1.472,16.473,0,20-2.478.95-10.726,1.063-18,2-11.211,1.443-22.563,4.3-26,11-8.142,15.866-5,64.925-5,92V433c0,10.236-.012,22.825,0,36,0.018,19.412-.416,37.757,4,49,4.574,11.647,25.215,14.609,37,15,5.227,0.173,6.834-.169,8,1,1.386,1.156.947,6.656,1,10,0.069,4.344.48,7.551-1,10-0.124.373-1.917,1.046-5,1-8.484-.127-25.508-1.972-35-2-26.339-.076-51.572.169-78,0-8.884,0-23.709.907-31,1-8.644.11-14.645,2.059-17,0-1.256-.767-0.948-7.074-1-10-0.067-3.775-.084-8.76,1-10,0.987-1.383,4.627-.891,7-1,13.287-.611,29.369-2.526,35-9,6.87-7.9,8.281-34.591,8.1-66.564-0.242-43.657.127-95.964-.1-118.436H564c-0.161,19.363-.007,61.81,0,101,0.007,38.977-.156,74.724,8,84,5.957,6.776,16.575,6.7,28,8,4.062,0.462,11.6.434,14,2,1.487,1.02.94,8.558,1,11,0.082,3.312.127,8.113-1,9-0.759,1.627-11.13.23-20,0-8.217-.214-19.284-0.979-24-1-29.046-.128-44.05-0.056-73,0-8.729,0-20.141.5-30,1-7.961.4-14.841,0.971-19,0-1.226-1.316-1.029-5.574-1-10,0.03-4.7.364-9.069,1-10,1.466-.965,3.519-0.879,7.578-1.056,14.435-.628,32.005-4.48,36.422-11.944,4.5-7.6,4.872-24.836,5-43,0.128-18.236,0-37.413,0-51V232c0-14-.008-32.007,0-49,0.008-16.108.154-32.348-4-41-6.02-12.541-16.118-12.822-27-14-6.09-.659-12.594-0.561-18-2-1.218-3.351-1.493-15.651,0-20,1.3-1.508,13.628-.118,28,0,11.012,0.09,21.047.86,30,1,19.094,0.3,21.909-.332,41,0,10.1-.45,26.779-0.612,43-1,11.479-.275,19.736-1.506,24,0,1.866,2.016,1.35,16.311,0,20-5.912,1.5-13.183,1.106-20,2-9.719,1.275-18.692,4.041-23,9-7.669,8.826-6.8,44.415-7,83C563.8,258.6,563.814,299.972,564,318ZM456,114v4c19.266-.094,36.625,4.34,44,16,7.642,12.082,5.956,28.121,6,49,0.036,16.709,0,34.192,0,47V429c0,13.143.031,31.887,0,49-0.035,19.672-.286,37.266-3,43-9.99,21.11-33.911,19.829-47,21-0.22.02,0.039,0.807,0,3,5.666,0,29.334-1,35-1,33-.056,48,0.333,81,0,8.073,0.007,24.72,1,34,1,0.087,0-.019-1.827,0-3-48.92-.26-52.233-20.147-51-79,0.389-18.572,0-39.43,0-59,0-12.317-.351-34.957,0-52,0.236-11.465-.618-18.02,1-20,2.453-2.309,5.734-2,8-2,47.151-.07,94.933,0,142,0,10.385,0,25.129.229,38,0,4.138-.074,8.23-0.053,12,0,4.721,0.066,8.24.251,10,2,1.329,1.969.968,3.845,1,6,0.084,5.745-.013,12.313,0,20,0.009,5.715-.01,90.7,0,92,0.278,35.477.451,66.1-7,76-9.285,12.332-28.232,14.9-44,16-0.187.013,0.015,0.962,0,3,2.4,0.071,9.679-.071,13,0,12.759-1.188,30.735-.875,43-1,20.4-.208,40.6.208,61,0,8.045,0,26.148.987,33,1,0.029,0,.047-1.822,0-3-18.118-.177-35.148-4.267-43-15-9.8-13.4-7-57.127-7-83V240c0-22.107-.613-61.5,1-87,0.623-9.841,3.515-16.659,6-20,8.031-10.8,23.7-15.1,43-15v-4c-23.348,2.131-48.616,2.127-74,2-25.974-.129-52.065-0.423-76-2v4c18.891-.207,33.415,3.063,41,12,10.923,12.869,10.15,35.437,10,59-0.127,19.907.229,41.713,0,63-0.15,13.907.371,37.493,0,55-0.191,9.047,1.114,16.278-1,19-2.39,1.543-5.4,1-8,1-46.5.1-93.6,0-140,0-13.283,0-36.344-.145-51,0-5.525.054-9.161,0.411-11-1-1.058-1.113-.981-19.332-1-44-0.023-29.848-.01-68.87,0-95,0.009-24.825,1.138-45.327,7-53,8.741-11.441,24.116-16.067,44-16v-4c-26.479,1.741-55.3,2.086-84,2C499.4,115.932,476.81,115.9,456,114Z"></path>
</svg></svg></g></g></svg></g></svg>